<?xml version="1.0" encoding="UTF-8" standalone="no"?>
<!DOCTYPE svg PUBLIC "-//W3C//DTD SVG 1.1//EN" "http://www.w3.org/Graphics/SVG/1.1/DTD/svg11.dtd">
<svg width="100%" height="100%" viewBox="0 0 320 320" version="1.1" xmlns="http://www.w3.org/2000/svg" xmlns:xlink="http://www.w3.org/1999/xlink" xml:space="preserve" xmlns:serif="http://www.serif.com/" style="fill-rule:evenodd;clip-rule:evenodd;stroke-linejoin:round;stroke-miterlimit:2;">
    <g transform="matrix(1,0,0,1,-386.062,-1131)">
        <g id="Artboard2" transform="matrix(1,0,0,1,386.062,-0.519424)">
            <rect x="0" y="1131.52" width="319.5" height="319.5" style="fill:none;"/>
            <g transform="matrix(1,0,0,1,-577.621,424.966)">
                <g>
                    <g transform="matrix(1,0,0,1,1.12644,0.72941)">
                        <path d="M655.745,955.852L809.603,918.282L809.675,801.995C809.675,801.995 808.579,788.298 798.441,788.199C788.303,788.1 718.463,797.487 718.463,797.487L701.191,777.587L661.015,781.341L649.375,801.618L655.745,955.852Z" style="fill:rgb(241,167,242);"/>
                    </g>
                    <g transform="matrix(1,0,0,1,0,-1.50193)">
                        <path d="M810.802,804.226L810.811,789.283C810.811,789.283 814.941,781.397 792.788,783.65C770.634,785.903 723.324,792.662 723.324,792.662L706.802,772.386L656.488,776.516L642.219,803.175L649.273,959.939L656.872,958.084L650.501,803.849L662.141,783.573L702.318,779.818L719.59,799.719C719.59,799.719 789.429,790.331 799.567,790.431C809.705,790.53 810.802,804.226 810.802,804.226Z" style="fill:rgb(173,255,240);"/>
                    </g>
                    <g transform="matrix(1,0,0,1,1.12644,0.72941)">
                        <path d="M810.315,921.197L648.858,960.622C647.986,960.835 647.065,960.647 646.347,960.109C645.629,959.57 645.19,958.739 645.149,957.843L638.096,801.079C638.072,800.54 638.193,800.004 638.448,799.528L652.716,772.869C653.197,771.971 654.101,771.378 655.116,771.295L705.43,767.165C706.416,767.084 707.377,767.493 708.002,768.26L723.453,787.222C732.067,786.002 771.65,780.439 791.358,778.434C814.07,776.125 813.508,784.602 812.684,787.501L812.603,918.284C812.603,919.666 811.658,920.869 810.315,921.197ZM806.605,915.926L806.684,787.049C806.96,786.242 806.982,786.411 806.969,785.779C806.963,785.517 806.969,785.779 806.969,785.779C806.969,785.779 806.825,785.405 806.242,785.116C804.093,784.049 799.909,783.596 791.965,784.404C769.85,786.653 722.621,793.4 722.621,793.4C721.58,793.549 720.536,793.141 719.871,792.326L704.348,773.274L657.235,777.141L644.127,801.633L650.979,953.928L806.605,915.926Z"/>
                    </g>
                </g>
                <g transform="matrix(1,0,0,1,3.39654,3.2639)">
                    <g transform="matrix(1,0,0,1,-267.343,76.7861)">
                        <path d="M1082.13,821.669C1080.22,833.878 1078.9,842.247 1078.9,842.247L917.448,881.673L917.851,877.63L924.957,875.853C924.957,875.853 937.82,767.293 939.601,757.2C940.728,750.817 967.374,752.145 991.793,750.442C999.303,743.683 1008.69,736.498 1008.69,736.498L1087.54,726.411C1087.54,726.411 1084.25,787.325 1082.13,821.669Z" style="fill:rgb(241,167,242);"/>
                    </g>
                    <path d="M650.507,954.416L662.308,835.958C662.308,835.958 662.308,825.632 672.164,825.632C682.021,825.632 719.569,820.469 719.569,820.469L736.465,804.981L818.602,795.594C818.602,795.594 830.805,792.308 828.928,806.389C827.598,816.366 819.433,868.765 814.787,898.455C816.905,864.111 820.198,803.197 820.198,803.197L741.347,813.284C741.347,813.284 731.767,822.776 724.258,829.535C699.839,831.238 688.38,831.641 672.258,833.987C670.477,844.079 657.614,952.639 657.614,952.639L650.507,954.416Z" style="fill:rgb(173,255,240);"/>
                    <g transform="matrix(1,0,0,1,-267.343,76.7861)">
                        <path d="M1079.62,845.162L918.159,884.587C917.214,884.818 916.215,884.576 915.48,883.937C914.745,883.299 914.366,882.344 914.463,881.375L926.657,758.963C926.731,757.271 927.669,745.846 939.507,745.846C948.363,745.846 979.765,741.629 985.576,740.838L1001.78,725.983C1002.25,725.555 1002.84,725.286 1003.47,725.214L1085.48,715.842C1086.75,715.587 1091.56,714.833 1095.12,717.232C1097.83,719.055 1100.23,722.648 1099.25,729.999C1097.37,744.088 1081.87,842.713 1081.87,842.713C1081.68,843.909 1080.79,844.874 1079.62,845.162ZM1076.25,839.807C1078.44,825.838 1091.58,742.097 1093.3,729.206C1093.82,725.281 1093.21,723.181 1091.77,722.208C1089.68,720.802 1086.72,721.704 1086.72,721.704C1086.58,721.743 1086.43,721.771 1086.29,721.788L1005.12,731.064L988.939,745.895C988.49,746.307 987.925,746.572 987.321,746.655C987.321,746.655 949.448,751.846 939.507,751.846C932.579,751.846 932.651,759.172 932.651,759.172C932.651,759.271 932.646,759.37 932.636,759.469L920.853,877.753L1076.25,839.807Z"/>
                    </g>
                </g>
            </g>
        </g>
    </g>
</svg>
