<?xml version="1.0" encoding="UTF-8" standalone="no"?>
<!DOCTYPE svg PUBLIC "-//W3C//DTD SVG 1.1//EN" "http://www.w3.org/Graphics/SVG/1.1/DTD/svg11.dtd">
<svg width="100%" height="100%" viewBox="0 0 651 651" version="1.1" xmlns="http://www.w3.org/2000/svg" xmlns:xlink="http://www.w3.org/1999/xlink" xml:space="preserve" xmlns:serif="http://www.serif.com/" style="fill-rule:evenodd;clip-rule:evenodd;stroke-linejoin:round;stroke-miterlimit:2;">
    <g transform="matrix(1,0,0,1,-1747.34,-1132)">
        <g id="Artboard4" transform="matrix(1,0,0,1,-193.407,-0.719737)">
            <rect x="1940.75" y="1132.72" width="650.661" height="650.661" style="fill:none;"/>
            <g transform="matrix(1,0,0,1,1838.68,1171.87)">
                <path d="M681.131,279.347C681.191,281.619 681.221,283.898 681.221,286.185C681.221,426.269 567.491,540 427.406,540C287.322,540 173.591,426.269 173.591,286.185C173.591,146.1 287.322,32.37 427.406,32.37C503.043,32.37 570.996,65.526 617.513,118.084C577.572,77.708 522.147,52.678 460.923,52.678C339.337,52.678 240.625,151.391 240.625,272.977C240.625,394.563 339.337,493.275 460.923,493.275C580.379,493.275 677.755,397.992 681.131,279.347Z" style="fill:rgb(255,250,149);"/>
            </g>
        </g>
    </g>
</svg>
