<?xml version="1.0" encoding="UTF-8" standalone="no"?>
<!DOCTYPE svg PUBLIC "-//W3C//DTD SVG 1.1//EN" "http://www.w3.org/Graphics/SVG/1.1/DTD/svg11.dtd">
<svg width="100%" height="100%" viewBox="0 0 320 320" version="1.1" xmlns="http://www.w3.org/2000/svg" xmlns:xlink="http://www.w3.org/1999/xlink" xml:space="preserve" xmlns:serif="http://www.serif.com/" style="fill-rule:evenodd;clip-rule:evenodd;stroke-linejoin:round;stroke-miterlimit:2;">
    <g transform="matrix(1,0,0,1,-1542.06,-1131)">
        <g id="Artboard3" transform="matrix(1,0,0,1,385.451,0)">
            <rect x="1156.61" y="1131" width="319.5" height="319.5" style="fill:none;"/>
            <g transform="matrix(5.44931,0,0,5.44931,1146.16,1092.96)">
                <path d="M31.234,54.731C31.844,54.731 32.289,54.285 32.406,53.652C34.07,40.809 35.875,38.863 48.578,37.457C49.234,37.387 49.68,36.895 49.68,36.285C49.68,35.676 49.234,35.207 48.578,35.113C35.875,33.707 34.07,31.762 32.406,18.918C32.289,18.285 31.844,17.863 31.234,17.863C30.625,17.863 30.18,18.285 30.086,18.918C28.422,31.762 26.594,33.707 13.914,35.113C13.234,35.207 12.789,35.676 12.789,36.285C12.789,36.895 13.234,37.387 13.914,37.457C26.57,39.121 28.328,40.832 30.086,53.652C30.18,54.285 30.625,54.731 31.234,54.731Z" style="fill:rgb(227,176,240);fill-rule:nonzero;"/>
            </g>
        </g>
    </g>
</svg>
